<svg width="1440" height="152" viewBox="0 0 1440 152" fill="none" xmlns="http://www.w3.org/2000/svg">
<path d="M1440 143.478C1414.25 148.047 1387.78 150.637 1363.12 151.12C1342.37 151.526 1322.9 150.44 1306.22 147.783C1289.56 145.128 1275.64 140.896 1266.04 134.985C1256.43 129.069 1251.06 121.414 1251.71 111.939C1252.36 102.522 1258.95 91.4682 1272.79 78.708C1279.68 72.3507 1283.64 67.2456 1285.11 63.2324C1285.84 61.2378 1285.94 59.5441 1285.51 58.1094C1285.09 56.678 1284.12 55.4397 1282.59 54.3857C1279.51 52.2588 1274.26 50.9422 1267.07 50.3506C1259.9 49.7608 1250.89 49.8963 1240.39 50.6055C1198.36 53.4431 1132.6 65.4523 1065.28 76.6934C998.004 87.9292 929.176 98.3959 881.087 98.1172C869.061 98.0475 858.318 97.3059 849.213 95.7324C840.113 94.1599 832.617 91.7517 827.106 88.3281C821.586 84.8977 818.038 80.4329 816.901 74.7715C815.769 69.1269 817.049 62.375 820.998 54.3945C824.9 46.5076 826.163 40.3147 825.232 35.5771C824.31 30.88 821.209 27.5137 816.131 25.2998C811.031 23.0769 803.968 22.0329 795.229 22.0059C786.498 21.9789 776.135 22.9664 764.461 24.7754C717.752 32.0136 650.283 52.3624 582.936 73.127C515.616 93.883 448.42 115.055 402.327 123.901C390.801 126.114 380.581 127.557 372 128.03C363.43 128.503 356.449 128.009 351.428 126.313C346.387 124.611 343.244 121.664 342.548 117.222C341.863 112.845 343.582 107.15 347.866 99.9951C356.396 85.7496 361.608 74.5662 363.78 65.9658C365.953 57.3611 365.057 51.4586 361.558 47.623C358.034 43.7608 351.741 41.8402 342.744 41.543C333.768 41.2464 322.221 42.5678 308.33 45.0547C280.547 50.0288 243.522 59.6406 199.172 70.1709C154.835 80.6981 103.207 92.1347 46.2646 100.746C29.6652 103.256 14.2727 105.155 0 106.524V0H1440V143.478Z" fill="black"/>
</svg>
