<svg width="1440" height="164" viewBox="0 0 1440 164" fill="none" xmlns="http://www.w3.org/2000/svg">
<path d="M1440 99.9902C1283.6 124.236 1131.35 147.754 1024.06 158.092C965.446 163.74 920.183 165.462 895.001 161.193C888.703 160.126 883.625 158.678 879.901 156.805C876.182 154.933 873.744 152.6 872.85 149.735C871.953 146.863 872.649 143.589 874.884 139.935C877.119 136.281 880.928 132.184 886.38 127.612C908.114 109.391 921.385 95.0903 926.91 84.1064C929.669 78.6225 930.464 74.0261 929.488 70.208C928.515 66.4022 925.753 63.261 921.165 60.7363C911.951 55.6662 895.592 53.2017 872.603 52.8203C849.641 52.4395 820.159 54.1351 784.775 57.3154C714.006 63.6763 619.693 75.9684 506.822 89.4229C393.958 102.877 262.554 117.491 117.629 128.494C75.4221 131.699 36.287 134.126 0 135.875V0H1440V99.9902Z" fill="black"/>
</svg>
